<?xml version="1.0" encoding="UTF-8"?><svg id="Layer_2" xmlns="http://www.w3.org/2000/svg" viewBox="0 0 270 59"><defs><style>.cls-1{fill:#fff;}</style></defs><g id="Layer_2-2"><path class="cls-1" d="M233.26,18.28c-11.52,0-20.84,8.95-20.84,19.99s9.32,19.97,20.84,19.97,20.84-8.94,20.84-19.97-9.32-19.99-20.84-19.99M233.26,48.25c-5.76,0-10.42-4.48-10.42-9.98s4.65-10,10.42-10,10.41,4.48,10.41,10-4.65,9.98-10.41,9.98M71.38,57.64h10.9l-16.36-38.59h-10.35l-16.36,38.59h10.91l2.49-6.13h16.26l2.51,6.13ZM55.74,43.93l5.02-13.1,5.02,13.1h-10.03ZM151.96,18.97h-22.2v38.6h10.29v-9.7h11.91c7.97,0,14.44-6.47,14.44-14.45s-6.47-14.45-14.44-14.45M151.96,39c-.47.13-.97.19-1.48.19h-10.43v-11.57h10.43c.51,0,1,.06,1.48.19,2.48.65,4.32,2.92,4.32,5.6s-1.83,4.94-4.32,5.59M208.91,33.41c0-7.98-6.47-14.45-14.45-14.45h-22.9v38.6h10.27v-9.71h9.91l4.32,9.85h11.45l-5.31-12.11c4.04-2.56,6.71-7.06,6.71-12.19M194.46,39.02c-.47.13-.96.19-1.46.19h-11.17v-11.57h11.17c3.38,0,5.79,2.8,5.79,5.77,0,1-.25,1.95-.71,2.77-.75,1.38-2.05,2.42-3.62,2.83M38.77,48.4c-3.62,5.88-10.29,9.84-17.94,9.84C9.32,58.24,0,49.3,0,38.27s9.32-19.99,20.84-19.99c7.65,0,14.31,3.96,17.93,9.84l-8.97,5.07c-1.81-2.94-5.14-4.92-8.97-4.92-5.76,0-10.41,4.48-10.41,10s4.65,9.98,10.41,9.98c3.83,0,7.16-1.98,8.97-4.92l8.97,5.07ZM270,8.57h-140.23l8.57-8.57h140.23l-8.57,8.57ZM257.49,20.25h-1.36v-.96h3.87v.96h-1.35v4.34h-1.17v-4.34ZM263.89,22.9l1.66-3.61h1.5v5.3h-1.11v-3.78l-1.51,3.34h-1.08l-1.51-3.34v3.78h-1.11v-5.3h1.51l1.65,3.61ZM123.51,33.41c0-7.98-6.47-14.45-14.45-14.45h-22.9v38.6h10.27v-9.71h9.91l4.32,9.85h11.45l-5.31-12.11c4.04-2.56,6.71-7.06,6.71-12.19M109.06,39.02c-.47.13-.96.19-1.46.19h-11.17v-11.57h11.17c3.38,0,5.79,2.8,5.79,5.77,0,1-.25,1.95-.71,2.77-.75,1.38-2.05,2.42-3.62,2.83"/></g></svg>